<svg width="21543" height="8625" viewBox="0 0 21543 8625" fill="none" xmlns="http://www.w3.org/2000/svg">
<path d="M9276.04 2548.42V2818.02H9691.68V3000.82H9276.04V3528.79C9276.04 3569.63 9280.81 3604.01 9290.34 3631.93C9300.55 3659.16 9314.51 3680.61 9332.21 3696.26C9349.91 3712.6 9371.02 3724.18 9395.53 3730.99C9420.03 3737.79 9446.93 3741.2 9476.2 3741.2C9497.31 3741.2 9519.09 3740.18 9541.56 3738.13C9564.03 3736.09 9585.81 3733.37 9606.92 3729.96C9627.34 3727.24 9646.4 3724.18 9664.1 3720.77C9682.49 3716.69 9697.8 3713.28 9710.06 3710.56L9736.61 3879.06C9718.91 3889.95 9697.46 3899.49 9672.27 3907.66C9647.77 3915.14 9621.21 3921.61 9592.62 3927.06C9564.03 3932.5 9534.07 3936.59 9502.75 3939.31C9472.12 3942.72 9441.48 3944.42 9410.84 3944.42C9355.02 3944.42 9303.62 3936.93 9256.64 3921.95C9210.35 3906.29 9170.52 3882.12 9137.16 3849.45C9103.8 3817.45 9077.59 3776.26 9058.53 3725.88C9040.14 3675.5 9030.95 3614.91 9030.95 3544.1V3000.82H8763.4V2818.02H9030.95V2548.42H9276.04ZM10557.7 3943.4C10476 3943.4 10401.1 3929.78 10333 3902.55C10265.6 3875.32 10207.7 3837.53 10159.4 3789.19C10111.1 3741.54 10073.6 3685.37 10047.1 3620.69C10021.2 3555.34 10008.3 3484.87 10008.3 3409.3V3367.43C10008.3 3280.97 10021.9 3202.68 10049.1 3132.56C10076.3 3062.43 10113.8 3002.52 10161.4 2952.82C10209.1 2903.12 10264.2 2865 10326.9 2838.45C10390.2 2811.21 10457.6 2797.6 10529.1 2797.6C10608.7 2797.6 10679.2 2811.21 10740.5 2838.45C10801.7 2865 10853.1 2902.1 10894.7 2949.76C10936.2 2998.1 10967.5 3055.62 10988.6 3122.34C11009.7 3189.06 11020.3 3261.91 11020.3 3340.88V3446.07H10254.4V3451.17C10261.9 3499.51 10273.4 3540.02 10289.1 3572.7C10304.7 3605.38 10326.2 3634.65 10353.4 3660.52C10380.7 3687.75 10412.7 3708.86 10449.4 3723.84C10486.9 3738.81 10527.7 3746.3 10572 3746.3C10632.6 3746.3 10689.1 3734.73 10741.5 3711.58C10793.9 3687.75 10837.1 3654.05 10871.2 3610.48L11001.9 3737.11C10965.1 3790.22 10908.6 3837.87 10832.4 3880.08C10756.8 3922.29 10665.2 3943.4 10557.7 3943.4ZM10528.1 2995.71C10493.3 2995.71 10461 3002.18 10431 3015.12C10401.8 3027.37 10375.5 3045.07 10352.4 3068.22C10329.3 3092.05 10309.9 3120.64 10294.2 3154C10278.5 3187.36 10267 3225.14 10259.5 3267.36H10779.3V3251.02C10779.3 3219.02 10773.5 3187.36 10761.9 3156.04C10750.3 3124.04 10734 3096.13 10712.9 3072.3C10692.5 3049.16 10666.6 3030.77 10635.3 3017.16C10604.6 3002.86 10568.9 2995.71 10528.1 2995.71ZM11345 2354.39H11940.4V3720.77H12275.3V3922.97H11345V3720.77H11694.3V2557.61H11345V2354.39ZM12601.1 2354.39H13196.5V3720.77H13531.4V3922.97H12601.1V3720.77H12950.4V2557.61H12601.1V2354.39ZM14534.3 3922.97L14520 3768.77C14482.5 3823.92 14436.9 3867.15 14383.1 3898.46C14329.3 3929.1 14269.1 3944.42 14202.4 3944.42C14145.2 3944.42 14092.8 3935.57 14045.1 3917.87C13998.1 3899.49 13957.6 3871.23 13923.6 3833.11C13890.2 3794.98 13864.4 3746.3 13846 3687.07C13827.6 3627.16 13818.4 3555.68 13818.4 3472.62V2818.02H14062.5V3474.66C14062.5 3525.72 14066.2 3568.61 14073.7 3603.33C14081.2 3637.37 14093.1 3664.61 14109.4 3685.03C14125.8 3706.14 14146.5 3721.11 14171.7 3729.96C14196.9 3738.81 14226.5 3743.24 14260.6 3743.24C14296 3743.24 14327.6 3739.5 14355.6 3732.01C14383.5 3723.84 14408 3712.94 14429.1 3699.33C14446.8 3687.07 14462.4 3672.78 14476.1 3656.44C14489.7 3639.42 14501.2 3620.69 14510.8 3600.27V2818.02H14755.9V3922.97H14534.3ZM15788.3 3623.76C15788.3 3604.7 15783.9 3587.68 15775 3572.7C15766.9 3557.72 15752.9 3543.42 15733.2 3529.81C15712.1 3517.55 15684.5 3505.98 15650.5 3495.09C15616.4 3484.19 15573.9 3473.98 15522.8 3464.45C15458.8 3451.51 15400.3 3435.51 15347.2 3416.45C15294.7 3397.39 15249.5 3374.24 15211.3 3347.01C15173.9 3321.14 15144.6 3290.5 15123.5 3255.1C15102.4 3219.7 15091.8 3178.51 15091.8 3131.53C15091.8 3086.6 15102.4 3044.05 15123.5 3003.88C15145.3 2963.03 15176.3 2927.29 15216.4 2896.65C15255.9 2866.02 15303.6 2841.85 15359.4 2824.15C15415.9 2806.45 15478.5 2797.6 15547.3 2797.6C15620.8 2797.6 15686.9 2806.79 15745.4 2825.17C15804 2842.87 15853.7 2867.38 15894.5 2898.7C15934.7 2930.01 15965.7 2967.12 15987.5 3010.01C16009.2 3052.9 16020.1 3099.2 16020.1 3148.89H15776.1C15776.1 3128.47 15771.6 3109.07 15762.8 3090.69C15754.6 3071.62 15742.4 3054.6 15726 3039.62C15707 3021.92 15682.4 3007.97 15652.5 2997.76C15622.5 2986.86 15587.5 2981.42 15547.3 2981.42C15510.5 2981.42 15478.2 2985.5 15450.3 2993.67C15423.1 3001.16 15400.6 3011.71 15382.9 3025.33C15365.2 3037.58 15351.9 3052.22 15343.1 3069.24C15334.2 3085.58 15329.8 3102.94 15329.8 3121.32C15329.8 3140.38 15333.5 3157.74 15341 3173.4C15348.5 3188.38 15361.8 3201.66 15380.9 3213.23C15398.6 3225.49 15423.1 3236.72 15454.4 3246.93C15486.4 3257.14 15526.5 3266.33 15574.9 3274.5C15642.3 3286.76 15703.9 3301.74 15759.7 3319.44C15815.5 3337.14 15863.2 3358.92 15902.7 3384.79C15942.2 3412.03 15972.8 3444.02 15994.6 3480.79C16016.4 3517.55 16027.3 3561.12 16027.3 3611.5C16027.3 3660.52 16015.7 3705.46 15992.6 3746.3C15970.1 3787.15 15938.1 3822.21 15896.6 3851.49C15854.4 3880.76 15804 3903.57 15745.4 3919.91C15686.9 3936.25 15621.9 3944.42 15550.4 3944.42C15470.7 3944.42 15399.9 3933.87 15338 3912.76C15276.7 3891.66 15225.3 3863.74 15183.8 3829.02C15141.5 3794.98 15109.5 3755.83 15087.8 3711.58C15066 3667.33 15055.1 3622.4 15055.1 3576.78H15292C15294 3610.82 15302.9 3639.76 15318.6 3663.59C15334.9 3686.73 15355.3 3705.46 15379.8 3719.75C15403.7 3734.73 15430.9 3745.62 15461.5 3752.43C15492.2 3758.56 15523.1 3761.62 15554.5 3761.62C15596.7 3761.62 15633.4 3757.2 15664.7 3748.35C15696.7 3739.5 15722.3 3727.58 15741.3 3712.6C15757 3700.35 15768.6 3687.07 15776.1 3672.78C15784.2 3657.8 15788.3 3641.46 15788.3 3623.76Z" fill="#F4F1DC"/>
<path d="M8701.15 5350.48L8719.02 5250.91C8776.03 4930.08 8883.69 4699.03 9041.97 4557.77C9200.26 4416.5 9385.78 4345.86 9598.54 4345.86C9805.33 4345.86 9955.96 4397.35 10050.4 4500.32C10144.9 4603.29 10174.2 4756.48 10138.5 4959.87L10123.2 5050.5H9790.01L9810.44 4931.78C9830.01 4822 9818.95 4738.61 9777.25 4681.59C9735.55 4624.57 9663.21 4596.06 9560.24 4596.06C9446.2 4596.06 9350.04 4642.02 9271.75 4733.92C9194.31 4824.98 9138.56 4967.95 9104.52 5162.83L9056.02 5439.84C9021.98 5633.87 9028.78 5777.26 9076.44 5870.02C9124.1 5962.78 9204.09 6009.16 9316.43 6009.16C9416.85 6009.16 9497.69 5980.65 9558.96 5923.64C9620.24 5865.77 9661.94 5774.28 9684.06 5649.19L9699.38 5554.72H10032.6L10013.4 5667.06C9981.06 5850.88 9899.79 5994.7 9769.59 6098.52C9640.24 6202.34 9470.46 6254.25 9260.26 6254.25C9034.74 6254.25 8871.35 6182.34 8770.08 6038.52C8669.66 5894.7 8646.68 5665.36 8701.15 5350.48ZM10130.8 5664.5L10138.5 5623.66C10169.1 5445.79 10250.4 5302.4 10382.3 5193.47C10515.1 5084.54 10675.5 5030.08 10863.6 5030.08C11051.6 5030.08 11192.1 5084.54 11284.8 5193.47C11378.4 5302.4 11409.5 5445.79 11378 5623.66L11370.3 5664.5C11338.9 5843.22 11257.2 5987.04 11125.2 6095.97C10994.2 6204.05 10834.2 6258.08 10645.3 6258.08C10457.2 6258.08 10316.4 6204.05 10222.8 6095.97C10130 5987.04 10099.4 5843.22 10130.8 5664.5ZM10480.6 5614.72L10471.7 5672.16C10453.8 5772.58 10462.7 5854.71 10498.5 5918.53C10535.1 5982.36 10598.5 6014.27 10688.7 6014.27C10780.6 6014.27 10855.5 5982.36 10913.3 5918.53C10972.1 5854.71 11010.4 5772.58 11028.2 5672.16L11037.2 5614.72C11055.9 5514.3 11047 5433.03 11010.4 5370.91C10973.8 5308.78 10909.5 5277.72 10817.6 5277.72C10727.4 5277.72 10653.4 5308.78 10595.5 5370.91C10537.6 5433.03 10499.3 5514.3 10480.6 5614.72ZM11483.9 5664.5L11491.6 5623.66C11522.2 5445.79 11603.5 5302.4 11735.4 5193.47C11868.2 5084.54 12028.6 5030.08 12216.7 5030.08C12404.7 5030.08 12545.2 5084.54 12637.9 5193.47C12731.5 5302.4 12762.6 5445.79 12731.1 5623.66L12723.4 5664.5C12692 5843.22 12610.3 5987.04 12478.4 6095.97C12347.3 6204.05 12187.3 6258.08 11998.4 6258.08C11810.3 6258.08 11669.5 6204.05 11575.9 6095.97C11483.1 5987.04 11452.5 5843.22 11483.9 5664.5ZM11833.7 5614.72L11824.8 5672.16C11806.9 5772.58 11815.8 5854.71 11851.6 5918.53C11888.2 5982.36 11951.6 6014.27 12041.8 6014.27C12133.7 6014.27 12208.6 5982.36 12266.5 5918.53C12325.2 5854.71 12363.5 5772.58 12381.3 5672.16L12390.3 5614.72C12409 5514.3 12400.1 5433.03 12363.5 5370.91C12326.9 5308.78 12262.6 5277.72 12170.7 5277.72C12080.5 5277.72 12006.5 5308.78 11948.6 5370.91C11890.7 5433.03 11852.4 5514.3 11833.7 5614.72ZM12703 6785.29L13006.8 5063.27H13334.9L13309.4 5213.89H13311.9C13351.9 5162.83 13408.1 5120.28 13480.4 5086.24C13553.6 5051.35 13633.2 5033.91 13719.1 5033.91C13867.2 5033.91 13975.7 5085.39 14044.6 5188.36C14113.6 5290.49 14131.9 5433.88 14099.5 5618.55L14093.1 5659.4C14060.8 5841.51 13990.6 5986.61 13882.5 6094.69C13774.4 6201.92 13646.4 6255.53 13498.3 6255.53C13412.3 6255.53 13342.6 6241.06 13288.9 6212.13C13235.3 6183.2 13192.8 6144.9 13161.3 6097.24L13040 6785.29H12703ZM13204.7 5847.05C13215.8 5892.15 13239.6 5931.72 13276.2 5965.76C13313.6 5999.8 13363 6016.82 13424.3 6016.82C13514.5 6016.82 13586.8 5984.06 13641.3 5918.53C13695.7 5853 13731.9 5770.03 13749.8 5669.61L13758.7 5612.17C13777.4 5510.05 13770.6 5428.77 13738.3 5368.35C13705.9 5307.08 13645.1 5276.44 13555.7 5276.44C13493.6 5276.44 13437.9 5293.46 13388.5 5327.5C13340 5361.54 13302.6 5400.69 13276.2 5444.94L13204.7 5847.05ZM14205.5 5663.23L14213.1 5622.38C14244.6 5442.82 14324.2 5299.42 14451.8 5192.19C14580.4 5084.97 14736.1 5031.35 14919.1 5031.35C15098.6 5031.35 15227.5 5082.41 15305.8 5184.53C15384.1 5286.66 15407.5 5427.92 15376 5608.34L15364.6 5704.08H14381.6L14402.1 5521.53H15056.9L15059.5 5513.88C15072.2 5448.35 15065 5391.76 15037.8 5344.1C15010.5 5295.59 14955.6 5271.34 14873.1 5271.34C14787.1 5271.34 14716.5 5301.97 14661.2 5363.25C14606.7 5424.52 14569.7 5500.26 14550.1 5590.47L14541.2 5665.78C14522.5 5775.56 14531 5861.51 14566.7 5923.64C14603.3 5985.76 14666.3 6016.82 14755.7 6016.82C14819.5 6016.82 14875.2 6004.06 14922.9 5978.53C14970.5 5953 15010.1 5918.96 15041.6 5876.41L15304.6 5965.76C15252.6 6053.42 15178.6 6124.05 15082.4 6177.66C14987.1 6231.28 14865 6258.08 14716.1 6258.08C14520.4 6258.08 14378.2 6204.9 14289.7 6098.52C14201.2 5992.14 14173.1 5847.05 14205.5 5663.23ZM15436 6230L15641.6 5063.27H15981.1L15953 5226.66H15954.3C15997.7 5172.2 16049.2 5127.94 16108.8 5093.9C16168.3 5059.01 16234.3 5041.56 16306.6 5041.56C16328.8 5041.56 16350.5 5043.27 16371.7 5046.67C16393.9 5049.22 16408.7 5052.2 16416.4 5055.61L16371.7 5309.63C16357.3 5304.53 16339.4 5300.7 16318.1 5298.14C16296.8 5294.74 16273 5293.04 16246.6 5293.04C16189.6 5293.04 16130 5311.76 16067.9 5349.21C16006.6 5385.8 15954.3 5434.73 15910.9 5496L15782 6230H15436ZM16283.6 5896.83C16304.9 5781.94 16367 5690.03 16470 5621.1C16573 5551.32 16701.1 5516.43 16854.3 5516.43H17149.1L17164.4 5427.07C17175.5 5364.1 17168.3 5316.87 17142.7 5285.38C17117.2 5253.04 17069.6 5236.87 16999.8 5236.87C16931.7 5236.87 16876.8 5250.91 16835.1 5279C16793.4 5306.23 16768.3 5346.23 16759.8 5398.99L16753.4 5427.07L16441.9 5425.8L16449.6 5388.78C16467.5 5284.1 16530.9 5199 16639.8 5133.47C16748.7 5067.1 16888.3 5033.91 17058.5 5033.91C17228.7 5033.91 17351.2 5065.39 17426.1 5128.37C17501 5191.34 17525.7 5294.74 17500.2 5438.56L17410.8 5947.89C17401.5 5998.95 17396.8 6047.46 17396.8 6093.41C17396.8 6138.52 17402.3 6177.66 17413.4 6210.85L17409.5 6230H17078.9C17069.6 6208.73 17063.6 6183.2 17061 6153.41C17058.5 6122.77 17058.1 6091.29 17059.8 6058.95C17023.2 6106.6 16967 6150.01 16891.3 6189.15C16815.5 6227.45 16724.9 6246.6 16619.4 6246.6C16496 6246.6 16404.1 6216.81 16343.6 6157.24C16284.1 6097.67 16264.1 6010.87 16283.6 5896.83ZM16621.9 5875.13C16611.7 5932.15 16621.1 5975.12 16650 6004.06C16678.9 6032.99 16724.5 6047.46 16786.6 6047.46C16853.8 6047.46 16919.4 6023.63 16983.2 5975.97C17047.9 5928.32 17085.3 5874.7 17095.5 5815.13L17119.8 5697.69H16929.6C16836.8 5697.69 16764.9 5712.16 16713.8 5741.1C16662.8 5769.18 16632.1 5813.86 16621.9 5875.13ZM17653.3 5314.74L17698 5063.27H18488.2L18444.8 5314.74H17653.3ZM17745.3 5877.68L17880.6 5116.88L17890.8 5102.84L17971.2 4648.4H18294.2L18091.2 5802.37C18075 5890.87 18076.3 5947.47 18095 5972.14C18113.7 5996.82 18148.6 6009.16 18199.7 6009.16C18221 6009.16 18241.4 6007.89 18261 6005.33C18281.4 6001.93 18301.4 5996.4 18321 5988.74L18278.8 6226.17C18256.7 6232.98 18224.4 6239.36 18181.8 6245.32C18139.3 6252.13 18087.4 6255.53 18026.1 6255.53C17914.6 6255.53 17833.8 6227.02 17783.6 6170C17734.2 6112.14 17721.4 6014.7 17745.3 5877.68ZM18441 6230L18646.5 5063.27H18989.9L18784.3 6230H18441ZM18697.5 4638.19C18706.9 4587.98 18731.6 4545.43 18771.6 4510.53C18811.6 4475.64 18863.1 4458.2 18926 4458.2C18989 4458.2 19033.7 4475.22 19060.1 4509.26C19087.3 4543.3 19096.7 4586.27 19088.2 4638.19C19078.8 4688.4 19053.7 4731.37 19012.8 4767.11C18972.8 4802.86 18921.8 4820.73 18859.7 4820.73C18796.7 4820.73 18751.6 4802.86 18724.3 4767.11C18698 4731.37 18689 4688.4 18697.5 4638.19ZM19109.9 5063.27H19435.4L19563 5765.35C19566.4 5790.03 19570.2 5813.86 19574.5 5836.83C19578.8 5859.81 19581.7 5877.68 19583.4 5890.45H19588.5C19594.5 5877.68 19603.4 5859.81 19615.4 5836.83C19628.1 5813.01 19640.5 5789.18 19652.4 5765.35L20036.6 5063.27H20349.3L19691.9 6230H19360.1L19109.9 5063.27ZM20268.9 5663.23L20276.6 5622.38C20308.1 5442.82 20387.6 5299.42 20515.3 5192.19C20643.8 5084.97 20799.5 5031.35 20982.5 5031.35C21162.1 5031.35 21291 5082.41 21369.3 5184.53C21447.6 5286.66 21471 5427.92 21439.5 5608.34L21428 5704.08H20445.1L20465.5 5521.53H21120.4L21122.9 5513.88C21135.7 5448.35 21128.5 5391.76 21101.2 5344.1C21074 5295.59 21019.1 5271.34 20936.5 5271.34C20850.6 5271.34 20780 5301.97 20724.6 5363.25C20670.2 5424.52 20633.2 5500.26 20613.6 5590.47L20604.7 5665.78C20585.9 5775.56 20594.4 5861.51 20630.2 5923.64C20666.8 5985.76 20729.8 6016.82 20819.1 6016.82C20882.9 6016.82 20938.7 6004.06 20986.3 5978.53C21034 5953 21073.6 5918.96 21105 5876.41L21368 5965.76C21316.1 6053.42 21242.1 6124.05 21145.9 6177.66C21050.6 6231.28 20928.5 6258.08 20779.5 6258.08C20583.8 6258.08 20441.7 6204.9 20353.2 6098.52C20264.7 5992.14 20236.6 5847.05 20268.9 5663.23Z" fill="#F4F1DC"/>
<path fill-rule="evenodd" clip-rule="evenodd" d="M4009.34 5179.43C3979.06 4976.02 3982.92 4934.1 4093.4 4265.76C4133.7 4021.81 4157.75 3797.79 4146.79 3767.82C4129.08 3719.22 4092.85 3715 3811.59 3728.71C3484.9 3744.58 3340.34 3789.71 3270.41 3897.54C3248.71 3931.15 3213.73 3958.31 3192.7 3957.95C3114.79 3956.66 3300.15 3682.36 3463.36 3502.66C3637.93 3310.46 3609.42 3283.95 4526.89 3309.06L5154.39 3326.29C5256.8 3329.09 5336.75 3416.13 5330.48 3518.39C5329.15 3539.96 5327.98 3561.06 5327.07 3582.01C5322.57 3684.13 5235.24 3762.67 5133.28 3755.32L4961.11 3742.91C4757.87 3728.26 4575.53 3728.74 4552.18 3743.88C4519.73 3765.03 4506.29 3921.74 4493.67 4427.54C4482.69 4867.74 4482.54 5023.24 4503.98 5105.99C4516.05 5152.55 4546.31 5193.11 4588.64 5215.96C4830 5346.2 5054.86 4697.39 5027.55 4963.4C5000.08 5175.15 4990.35 5406.97 4748.8 5566.85C4516.81 5720.45 4096.07 5670.78 4009.34 5179.43Z" fill="#F4F1DC"/>
<path d="M6941.55 3261.99L6005.62 1640.93C5942.21 1531.09 5824.03 1462.85 5697.2 1462.85H2817.75C2690.93 1462.85 2572.75 1531.09 2509.32 1640.93C2509.32 1640.93 1839.64 2875.73 1573.01 3310.43C1511.62 3410.5 1412.57 3385.39 1358.81 3358.2C1284.79 3320.77 1283.92 3231.42 1332.95 3145.65C1669.99 2556.04 2244.96 1488.29 2244.96 1488.29C2362.73 1284.31 2582.22 1157.58 2817.75 1157.58H5697.2C5932.73 1157.58 6152.22 1284.31 6270 1488.29L7205.91 3109.35L6941.55 3261.99Z" fill="#F4F1DC"/>
<path d="M5958.71 3306.91L5404.68 2347.32C5341.26 2237.48 5223.08 2169.26 5096.25 2169.26H3397.18C3270.35 2169.26 3152.16 2237.48 3088.76 2347.32L2567.37 3326.68C2567.37 3326.68 2489.97 3453.81 2355.45 3390.45C2230.6 3331.64 2303 3174.05 2303 3174.05L2824.39 2194.69C2942.15 1990.7 3161.64 1863.99 3397.18 1863.99H5096.25C5331.8 1863.99 5551.28 1990.7 5669.04 2194.69L6223.06 3154.28L5958.71 3306.91Z" fill="#F4F1DC"/>
<path d="M7318.11 3125.82C7318.11 3278.16 7194.6 3401.67 7042.26 3401.67C6889.91 3401.67 6766.4 3278.16 6766.4 3125.82C6766.4 2973.47 6889.91 2849.97 7042.26 2849.97C7194.6 2849.97 7318.11 2973.47 7318.11 3125.82Z" fill="#F4F1DC"/>
<path d="M6288.73 3125.82C6288.73 3278.16 6165.22 3401.67 6012.88 3401.67C5860.53 3401.67 5737.03 3278.16 5737.03 3125.82C5737.03 2973.47 5860.53 2849.97 6012.88 2849.97C6165.22 2849.97 6288.73 2973.47 6288.73 3125.82Z" fill="#F4F1DC"/>
<path d="M5554.59 7467.84H2675.16C2439.61 7467.84 2220.14 7341.12 2102.36 7137.13L1319.51 5781.17L1583.87 5628.54L2366.73 6984.49C2430.15 7094.34 2548.33 7162.57 2675.16 7162.57H5554.59C5681.43 7162.57 5799.61 7094.34 5863.04 6984.49L6908.56 5430.58C6908.56 5430.58 6989.48 5324.79 7110.11 5385.22C7227.27 5443.91 7172.92 5583.22 7172.92 5583.22L6127.4 7137.13C6009.63 7341.12 5790.14 7467.84 5554.59 7467.84Z" fill="#F4F1DC"/>
<path d="M5107.43 6745.09H3408.37C3172.82 6745.09 2953.34 6618.38 2835.57 6414.39L2314.71 5535.67L2563.82 5352.52L3099.93 6261.76C3163.36 6371.59 3281.54 6439.82 3408.37 6439.82H5107.43C5234.27 6439.82 5352.45 6371.59 5415.88 6261.76L5910.25 5424.82C5910.25 5424.82 5992.95 5313.46 6114.33 5379.46C6224.81 5439.53 6182.27 5565.96 6182.27 5565.96L5680.24 6414.39C5560.29 6617.11 5342.98 6745.09 5107.43 6745.09Z" fill="#F4F1DC"/>
<path d="M2849.18 5628.48C2849.18 5780.82 2725.67 5904.33 2573.33 5904.33C2420.99 5904.33 2297.47 5780.82 2297.47 5628.48C2297.47 5476.13 2420.99 5352.62 2573.33 5352.62C2725.67 5352.62 2849.18 5476.13 2849.18 5628.48Z" fill="#F4F1DC"/>
<path d="M1728.15 5628.48C1728.15 5780.82 1604.64 5904.33 1452.29 5904.33C1299.95 5904.33 1176.45 5780.82 1176.45 5628.48C1176.45 5476.13 1299.95 5352.62 1452.29 5352.62C1604.64 5352.62 1728.15 5476.13 1728.15 5628.48Z" fill="#F4F1DC"/>
<path d="M1184.56 5103.9C1157.47 5097.75 1132.15 5083.85 1112.97 5064.59C1093.34 5044.88 1111.61 5078.22 903.575 4682.49C822.902 4529.04 754.184 4396.58 750.865 4388.14C742.933 4367.97 742.07 4321.83 749.195 4298.86C753.87 4283.79 1074.56 3737.99 1094.84 3710.59C1123.93 3671.29 1182.36 3648.22 1230.81 3656.87C1286.71 3666.86 1332.69 3709.01 1347.22 3763.54C1355.36 3794.16 1351.16 3833.45 1336.65 3862.22C1333.56 3868.36 1276.11 3966.29 1209 4079.84C1141.87 4193.4 1084.45 4291.33 1081.38 4297.47C1068.57 4323.12 1066.32 4359.66 1075.85 4387.32C1078.06 4393.75 1139.47 4512.38 1212.3 4650.96C1285.12 4789.52 1346.97 4908.55 1349.73 4915.46C1356.2 4931.64 1358.57 4973.22 1354.21 4994.19C1338.83 5068.28 1257.98 5120.57 1184.56 5103.9Z" fill="#F4F1DC"/>
<path d="M7380.35 5103.03C7342.38 5093.07 7306.21 5064.27 7288.6 5029.99C7267.4 4988.7 7266.39 4939.63 7285.96 4900.75C7289.36 4893.98 7347.23 4795.4 7414.55 4681.69C7481.87 4567.97 7539.11 4470.68 7541.74 4465.47C7553.56 4442.16 7556.88 4410.22 7550.2 4384.11C7545.63 4366.23 7555.56 4385.68 7405.75 4100.91C7336 3968.32 7276.9 3854.3 7274.44 3847.55C7268.08 3830.12 7266.27 3819.03 7266.28 3797.43C7266.28 3774.72 7270.84 3755.23 7280.68 3735.63C7289.22 3718.61 7292.97 3713.25 7306.08 3699.36C7359.51 3642.72 7450.56 3639.66 7507.25 3692.6C7515.14 3699.97 7525.33 3711.68 7529.88 3718.63C7544.12 3740.32 7869.21 4360.57 7874.65 4376.42C7878.77 4388.42 7879.86 4395.56 7880.55 4414.95C7881.55 4443.42 7877.67 4462.16 7866.08 4484.75C7852.33 4511.51 7536.59 5043.16 7527.73 5054.45C7510.22 5076.76 7480.7 5095.39 7450.74 5103.06C7431.13 5108.08 7399.58 5108.06 7380.35 5103.03Z" fill="#F4F1DC"/>
</svg>
